<svg width="798" height="490" viewBox="0 0 798 490" fill="none" xmlns="http://www.w3.org/2000/svg">
<circle cx="119.5" cy="37.5" r="37.5" fill="#FFD60A"/>
<path fill-rule="evenodd" clip-rule="evenodd" d="M20 40H0V490H20V233V209.205V40Z" fill="#0B0E14"/>
<path d="M220 40H225V490H220V40Z" fill="#0B0E14"/>
<path d="M20 96.5164L220 103.845V124.833L20 117.504V96.5164Z" fill="#0B0E14"/>
<path fill-rule="evenodd" clip-rule="evenodd" d="M20 233L220 225.154V201.763L20 209.205V233Z" fill="#0B0E14"/>
<path d="M20 316H220V334H20V316Z" fill="#0B0E14"/>
<path d="M20 434.249L220 423.258V445.228L20 456.219V434.249Z" fill="#0B0E14"/>
<path d="M279.125 293V259.188C279.125 255.979 278.833 252.896 278.25 249.938C277.708 246.979 276.729 244.333 275.313 242C273.938 239.625 272.062 237.75 269.688 236.375C267.354 235 264.396 234.312 260.813 234.312C258.021 234.312 255.479 234.792 253.188 235.75C250.938 236.667 249 238.083 247.375 240C245.75 241.917 244.479 244.333 243.562 247.25C242.687 250.125 242.25 253.521 242.25 257.438L234.937 255.188C234.937 248.646 236.104 243.042 238.438 238.375C240.812 233.667 244.125 230.062 248.375 227.562C252.667 225.021 257.708 223.75 263.5 223.75C267.875 223.75 271.604 224.437 274.688 225.812C277.771 227.187 280.333 229.021 282.375 231.312C284.417 233.562 286.021 236.104 287.188 238.937C288.354 241.729 289.167 244.583 289.625 247.5C290.125 250.375 290.375 253.104 290.375 255.688V293H279.125ZM231 293V225.5H241V243.562H242.25V293H231Z" fill="#0B0E14"/>
<path d="M319.562 294.875C314.52 294.875 310.291 293.958 306.874 292.125C303.499 290.25 300.937 287.792 299.187 284.75C297.478 281.708 296.624 278.375 296.624 274.75C296.624 271.208 297.291 268.146 298.624 265.562C299.999 262.938 301.916 260.771 304.374 259.062C306.832 257.312 309.77 255.938 313.187 254.938C316.395 254.062 319.978 253.312 323.937 252.688C327.937 252.021 331.978 251.417 336.062 250.875C340.145 250.333 343.957 249.812 347.499 249.312L343.499 251.625C343.624 245.625 342.416 241.187 339.874 238.312C337.374 235.437 333.041 234 326.874 234C322.791 234 319.207 234.938 316.124 236.812C313.082 238.646 310.937 241.646 309.687 245.812L299.124 242.625C300.749 236.708 303.895 232.062 308.562 228.688C313.228 225.313 319.374 223.625 326.999 223.625C333.124 223.625 338.374 224.729 342.749 226.938C347.166 229.104 350.332 232.396 352.249 236.812C353.207 238.896 353.812 241.167 354.062 243.625C354.312 246.042 354.437 248.583 354.437 251.25V293H344.562V276.812L346.874 278.312C344.332 283.771 340.77 287.896 336.187 290.688C331.645 293.479 326.103 294.875 319.562 294.875ZM321.249 285.562C325.249 285.562 328.707 284.854 331.624 283.438C334.582 281.979 336.957 280.083 338.749 277.75C340.541 275.375 341.707 272.792 342.249 270C342.874 267.917 343.207 265.604 343.249 263.062C343.332 260.479 343.374 258.5 343.374 257.125L347.249 258.812C343.624 259.312 340.062 259.792 336.562 260.25C333.062 260.708 329.749 261.208 326.624 261.75C323.499 262.25 320.687 262.854 318.187 263.562C316.353 264.146 314.624 264.896 312.999 265.812C311.416 266.729 310.124 267.917 309.124 269.375C308.166 270.792 307.687 272.562 307.687 274.688C307.687 276.521 308.145 278.271 309.062 279.938C310.02 281.604 311.478 282.958 313.437 284C315.437 285.042 318.041 285.562 321.249 285.562Z" fill="#0B0E14"/>
<path d="M395.437 294.875C389.103 294.875 383.77 293.312 379.437 290.188C375.103 287.021 371.812 282.75 369.562 277.375C367.353 271.958 366.249 265.896 366.249 259.188C366.249 252.396 367.353 246.312 369.562 240.937C371.812 235.562 375.103 231.333 379.437 228.25C383.812 225.167 389.166 223.625 395.499 223.625C401.749 223.625 407.124 225.188 411.624 228.312C416.166 231.396 419.645 235.625 422.062 241C424.478 246.375 425.687 252.438 425.687 259.188C425.687 265.938 424.478 272 422.062 277.375C419.645 282.75 416.166 287.021 411.624 290.188C407.124 293.312 401.728 294.875 395.437 294.875ZM364.374 293V203H375.562V243.312H374.312V293H364.374ZM394.062 284.688C398.52 284.688 402.207 283.562 405.124 281.312C408.041 279.062 410.228 276.021 411.687 272.188C413.145 268.312 413.874 263.979 413.874 259.188C413.874 254.438 413.145 250.146 411.687 246.312C410.27 242.479 408.062 239.437 405.062 237.187C402.103 234.937 398.332 233.812 393.749 233.812C389.374 233.812 385.749 234.896 382.874 237.062C379.999 239.188 377.853 242.167 376.437 246C375.02 249.792 374.312 254.188 374.312 259.188C374.312 264.104 374.999 268.5 376.374 272.375C377.791 276.208 379.957 279.229 382.874 281.438C385.791 283.604 389.52 284.688 394.062 284.688Z" fill="#0B0E14"/>
<path d="M434.388 293V201.125H445.513V293H434.388Z" fill="#0B0E14"/>
<path d="M487.266 294.875C480.641 294.875 474.849 293.417 469.891 290.5C464.974 287.542 461.141 283.438 458.391 278.188C455.641 272.896 454.266 266.729 454.266 259.688C454.266 252.312 455.62 245.938 458.328 240.562C461.036 235.146 464.807 230.979 469.641 228.062C474.516 225.104 480.224 223.625 486.766 223.625C493.557 223.625 499.328 225.188 504.078 228.312C508.87 231.437 512.453 235.896 514.828 241.688C517.245 247.479 518.286 254.375 517.953 262.375H506.703V258.375C506.578 250.083 504.891 243.896 501.641 239.812C498.391 235.688 493.557 233.625 487.141 233.625C480.266 233.625 475.036 235.833 471.453 240.25C467.87 244.667 466.078 251 466.078 259.25C466.078 267.208 467.87 273.375 471.453 277.75C475.036 282.125 480.141 284.312 486.766 284.312C491.224 284.312 495.099 283.292 498.391 281.25C501.682 279.208 504.266 276.271 506.141 272.438L516.828 276.125C514.203 282.083 510.245 286.708 504.953 290C499.703 293.25 493.807 294.875 487.266 294.875ZM462.328 262.375V253.438H512.203V262.375H462.328Z" fill="#0B0E14"/>
<path d="M604.475 293L604.537 249.812C604.537 244.771 603.183 240.833 600.475 238C597.808 235.125 594.329 233.687 590.037 233.687C587.537 233.687 585.162 234.271 582.912 235.437C580.662 236.562 578.829 238.354 577.412 240.812C575.995 243.229 575.287 246.333 575.287 250.125L569.412 247.75C569.329 242.958 570.308 238.771 572.35 235.187C574.433 231.562 577.266 228.75 580.85 226.75C584.433 224.75 588.475 223.75 592.975 223.75C600.016 223.75 605.558 225.896 609.6 230.188C613.641 234.438 615.662 240.167 615.662 247.375L615.6 293H604.475ZM523.725 293V225.5H533.662V243.562H534.912V293H523.725ZM564.162 293L564.225 250.25C564.225 245.083 562.891 241.042 560.225 238.125C557.558 235.167 554.016 233.687 549.6 233.687C545.225 233.687 541.683 235.188 538.975 238.188C536.266 241.188 534.912 245.167 534.912 250.125L529.037 246.625C529.037 242.25 530.079 238.333 532.162 234.875C534.245 231.417 537.079 228.708 540.662 226.75C544.245 224.75 548.308 223.75 552.85 223.75C557.391 223.75 561.35 224.708 564.725 226.625C568.1 228.542 570.704 231.292 572.537 234.875C574.37 238.417 575.287 242.646 575.287 247.562L575.225 293H564.162Z" fill="#0B0E14"/>
<path d="M654.331 294.875C647.706 294.875 641.914 293.417 636.956 290.5C632.039 287.542 628.206 283.438 625.456 278.188C622.706 272.896 621.331 266.729 621.331 259.688C621.331 252.312 622.685 245.938 625.394 240.562C628.102 235.146 631.873 230.979 636.706 228.062C641.581 225.104 647.289 223.625 653.831 223.625C660.623 223.625 666.394 225.188 671.144 228.312C675.935 231.437 679.519 235.896 681.894 241.688C684.31 247.479 685.352 254.375 685.019 262.375H673.769V258.375C673.644 250.083 671.956 243.896 668.706 239.812C665.456 235.688 660.623 233.625 654.206 233.625C647.331 233.625 642.102 235.833 638.519 240.25C634.935 244.667 633.144 251 633.144 259.25C633.144 267.208 634.935 273.375 638.519 277.75C642.102 282.125 647.206 284.312 653.831 284.312C658.289 284.312 662.164 283.292 665.456 281.25C668.748 279.208 671.331 276.271 673.206 272.438L683.894 276.125C681.269 282.083 677.31 286.708 672.019 290C666.769 293.25 660.873 294.875 654.331 294.875ZM629.394 262.375V253.438H679.269V262.375H629.394Z" fill="#0B0E14"/>
<path d="M738.915 293V259.188C738.915 255.979 738.623 252.896 738.04 249.938C737.498 246.979 736.519 244.333 735.103 242C733.728 239.625 731.853 237.75 729.478 236.375C727.144 235 724.186 234.312 720.603 234.312C717.811 234.312 715.269 234.792 712.978 235.75C710.728 236.667 708.79 238.083 707.165 240C705.54 241.917 704.269 244.333 703.353 247.25C702.478 250.125 702.04 253.521 702.04 257.438L694.728 255.188C694.728 248.646 695.894 243.042 698.228 238.375C700.603 233.667 703.915 230.062 708.165 227.562C712.457 225.021 717.498 223.75 723.29 223.75C727.665 223.75 731.394 224.437 734.478 225.812C737.561 227.187 740.123 229.021 742.165 231.312C744.207 233.562 745.811 236.104 746.978 238.937C748.144 241.729 748.957 244.583 749.415 247.5C749.915 250.375 750.165 253.104 750.165 255.688V293H738.915ZM690.79 293V225.5H700.79V243.562H702.04V293H690.79Z" fill="#0B0E14"/>
<path d="M797.852 293C793.852 293.792 789.893 294.104 785.977 293.938C782.102 293.812 778.643 293.042 775.602 291.625C772.56 290.167 770.247 287.917 768.664 284.875C767.331 282.208 766.602 279.521 766.477 276.812C766.393 274.062 766.352 270.958 766.352 267.5V206.75H777.477V267C777.477 269.75 777.497 272.104 777.539 274.062C777.622 276.021 778.06 277.708 778.852 279.125C780.352 281.792 782.727 283.354 785.977 283.812C789.268 284.271 793.227 284.146 797.852 283.438V293ZM752.664 234.688V225.5H797.852V234.688H752.664Z" fill="#0B0E14"/>
<path d="M279.125 444V410.188C279.125 406.979 278.833 403.896 278.25 400.938C277.708 397.979 276.729 395.333 275.313 393C273.938 390.625 272.062 388.75 269.688 387.375C267.354 386 264.396 385.312 260.813 385.312C258.021 385.312 255.479 385.792 253.188 386.75C250.938 387.667 249 389.083 247.375 391C245.75 392.917 244.479 395.333 243.562 398.25C242.687 401.125 242.25 404.521 242.25 408.438L234.937 406.188C234.937 399.646 236.104 394.042 238.438 389.375C240.812 384.667 244.125 381.062 248.375 378.562C252.667 376.021 257.708 374.75 263.5 374.75C267.875 374.75 271.604 375.438 274.688 376.812C277.771 378.188 280.333 380.021 282.375 382.312C284.417 384.562 286.021 387.104 287.188 389.938C288.354 392.729 289.167 395.583 289.625 398.5C290.125 401.375 290.375 404.104 290.375 406.688V444H279.125ZM231 444V376.5H241V394.563H242.25V444H231Z" fill="#0B0E14"/>
<path d="M327.687 475.875C324.145 475.875 320.687 475.333 317.312 474.25C313.937 473.167 310.832 471.521 307.999 469.313C305.207 467.146 302.874 464.396 300.999 461.062L311.187 455.688C312.853 458.979 315.207 461.375 318.249 462.875C321.332 464.375 324.499 465.125 327.749 465.125C332.041 465.125 335.603 464.333 338.437 462.75C341.27 461.208 343.353 458.896 344.687 455.812C346.062 452.729 346.728 448.896 346.687 444.312V425.875H347.999V376.5H357.874V444.438C357.874 446.271 357.812 448.042 357.687 449.75C357.603 451.458 357.395 453.146 357.062 454.812C356.187 459.604 354.457 463.542 351.874 466.625C349.291 469.75 345.957 472.063 341.874 473.563C337.791 475.104 333.062 475.875 327.687 475.875ZM326.874 445.875C320.582 445.875 315.187 444.312 310.687 441.188C306.187 438.021 302.707 433.75 300.249 428.375C297.832 423 296.624 416.938 296.624 410.188C296.624 403.438 297.832 397.375 300.249 392C302.707 386.625 306.187 382.396 310.687 379.312C315.187 376.188 320.562 374.625 326.812 374.625C333.187 374.625 338.541 376.167 342.874 379.25C347.207 382.333 350.478 386.562 352.687 391.938C354.937 397.312 356.062 403.396 356.062 410.188C356.062 416.896 354.937 422.958 352.687 428.375C350.478 433.75 347.207 438.021 342.874 441.188C338.541 444.312 333.207 445.875 326.874 445.875ZM328.249 435.688C332.791 435.688 336.52 434.604 339.437 432.438C342.353 430.229 344.499 427.208 345.874 423.375C347.291 419.5 347.999 415.104 347.999 410.188C347.999 405.188 347.291 400.792 345.874 397C344.499 393.167 342.374 390.188 339.499 388.062C336.624 385.896 332.978 384.813 328.562 384.813C323.978 384.813 320.187 385.938 317.187 388.188C314.228 390.438 312.02 393.479 310.562 397.312C309.145 401.146 308.437 405.438 308.437 410.188C308.437 414.979 309.166 419.312 310.624 423.188C312.082 427.021 314.27 430.062 317.187 432.312C320.145 434.562 323.832 435.688 328.249 435.688Z" fill="#0B0E14"/>
<path d="M370.325 364.563V353.062H381.45V364.563H370.325ZM370.325 444V376.5H381.45V444H370.325Z" fill="#0B0E14"/>
<path d="M442.016 444V410.188C442.016 406.979 441.724 403.896 441.141 400.938C440.599 397.979 439.62 395.333 438.203 393C436.828 390.625 434.953 388.75 432.578 387.375C430.245 386 427.286 385.312 423.703 385.312C420.911 385.312 418.37 385.792 416.078 386.75C413.828 387.667 411.891 389.083 410.266 391C408.641 392.917 407.37 395.333 406.453 398.25C405.578 401.125 405.141 404.521 405.141 408.438L397.828 406.188C397.828 399.646 398.995 394.042 401.328 389.375C403.703 384.667 407.016 381.062 411.266 378.562C415.557 376.021 420.599 374.75 426.391 374.75C430.766 374.75 434.495 375.438 437.578 376.812C440.661 378.188 443.224 380.021 445.266 382.312C447.307 384.562 448.911 387.104 450.078 389.938C451.245 392.729 452.057 395.583 452.516 398.5C453.016 401.375 453.266 404.104 453.266 406.688V444H442.016ZM393.891 444V376.5H403.891V394.563H405.141V444H393.891Z" fill="#0B0E14"/>
<path d="M491.904 445.875C485.279 445.875 479.488 444.417 474.529 441.5C469.613 438.542 465.779 434.438 463.029 429.188C460.279 423.896 458.904 417.729 458.904 410.688C458.904 403.312 460.258 396.938 462.967 391.562C465.675 386.146 469.446 381.979 474.279 379.062C479.154 376.104 484.863 374.625 491.404 374.625C498.196 374.625 503.967 376.188 508.717 379.312C513.508 382.438 517.092 386.896 519.467 392.688C521.883 398.479 522.925 405.375 522.592 413.375H511.342V409.375C511.217 401.083 509.529 394.896 506.279 390.813C503.029 386.688 498.196 384.625 491.779 384.625C484.904 384.625 479.675 386.833 476.092 391.25C472.508 395.667 470.717 402 470.717 410.25C470.717 418.208 472.508 424.375 476.092 428.75C479.675 433.125 484.779 435.312 491.404 435.312C495.863 435.312 499.738 434.292 503.029 432.25C506.321 430.208 508.904 427.271 510.779 423.438L521.467 427.125C518.842 433.083 514.883 437.708 509.592 441C504.342 444.25 498.446 445.875 491.904 445.875ZM466.967 413.375V404.438H516.842V413.375H466.967Z" fill="#0B0E14"/>
<path d="M559.507 445.875C552.882 445.875 547.09 444.417 542.132 441.5C537.215 438.542 533.382 434.438 530.632 429.188C527.882 423.896 526.507 417.729 526.507 410.688C526.507 403.312 527.861 396.938 530.569 391.562C533.278 386.146 537.048 381.979 541.882 379.062C546.757 376.104 552.465 374.625 559.007 374.625C565.798 374.625 571.569 376.188 576.319 379.312C581.111 382.438 584.694 386.896 587.069 392.688C589.486 398.479 590.528 405.375 590.194 413.375H578.944V409.375C578.819 401.083 577.132 394.896 573.882 390.813C570.632 386.688 565.798 384.625 559.382 384.625C552.507 384.625 547.278 386.833 543.694 391.25C540.111 395.667 538.319 402 538.319 410.25C538.319 418.208 540.111 424.375 543.694 428.75C547.278 433.125 552.382 435.312 559.007 435.312C563.465 435.312 567.34 434.292 570.632 432.25C573.923 430.208 576.507 427.271 578.382 423.438L589.069 427.125C586.444 433.083 582.486 437.708 577.194 441C571.944 444.25 566.048 445.875 559.507 445.875ZM534.569 413.375V404.438H584.444V413.375H534.569Z" fill="#0B0E14"/>
<path d="M597.859 444V376.5H607.797V392.812L606.172 390.688C606.964 388.604 607.984 386.688 609.234 384.938C610.526 383.188 611.964 381.75 613.547 380.625C615.297 379.208 617.276 378.125 619.484 377.375C621.693 376.625 623.943 376.187 626.234 376.063C628.526 375.896 630.672 376.042 632.672 376.5V386.938C630.339 386.312 627.776 386.146 624.984 386.438C622.193 386.729 619.609 387.75 617.234 389.5C615.068 391.042 613.38 392.917 612.172 395.125C611.005 397.333 610.193 399.729 609.734 402.312C609.276 404.854 609.047 407.458 609.047 410.125V444H597.859Z" fill="#0B0E14"/>
<path d="M639.49 364.563V353.062H650.615V364.563H639.49ZM639.49 444V376.5H650.615V444H639.49Z" fill="#0B0E14"/>
<path d="M711.181 444V410.188C711.181 406.979 710.889 403.896 710.306 400.938C709.764 397.979 708.785 395.333 707.368 393C705.993 390.625 704.118 388.75 701.743 387.375C699.41 386 696.452 385.312 692.868 385.312C690.077 385.312 687.535 385.792 685.243 386.75C682.993 387.667 681.056 389.083 679.431 391C677.806 392.917 676.535 395.333 675.618 398.25C674.743 401.125 674.306 404.521 674.306 408.438L666.993 406.188C666.993 399.646 668.16 394.042 670.493 389.375C672.868 384.667 676.181 381.062 680.431 378.562C684.722 376.021 689.764 374.75 695.556 374.75C699.931 374.75 703.66 375.438 706.743 376.812C709.827 378.188 712.389 380.021 714.431 382.312C716.472 384.562 718.077 387.104 719.243 389.938C720.41 392.729 721.222 395.583 721.681 398.5C722.181 401.375 722.431 404.104 722.431 406.688V444H711.181ZM663.056 444V376.5H673.056V394.563H674.306V444H663.056Z" fill="#0B0E14"/>
<path d="M759.742 475.875C756.201 475.875 752.742 475.333 749.367 474.25C745.992 473.167 742.888 471.521 740.055 469.313C737.263 467.146 734.93 464.396 733.055 461.062L743.242 455.688C744.909 458.979 747.263 461.375 750.305 462.875C753.388 464.375 756.555 465.125 759.805 465.125C764.096 465.125 767.659 464.333 770.492 462.75C773.326 461.208 775.409 458.896 776.742 455.812C778.117 452.729 778.784 448.896 778.742 444.312V425.875H780.055V376.5H789.93V444.438C789.93 446.271 789.867 448.042 789.742 449.75C789.659 451.458 789.451 453.146 789.117 454.812C788.242 459.604 786.513 463.542 783.93 466.625C781.346 469.75 778.013 472.063 773.93 473.563C769.846 475.104 765.117 475.875 759.742 475.875ZM758.93 445.875C752.638 445.875 747.242 444.312 742.742 441.188C738.242 438.021 734.763 433.75 732.305 428.375C729.888 423 728.68 416.938 728.68 410.188C728.68 403.438 729.888 397.375 732.305 392C734.763 386.625 738.242 382.396 742.742 379.312C747.242 376.188 752.617 374.625 758.867 374.625C765.242 374.625 770.596 376.167 774.93 379.25C779.263 382.333 782.534 386.562 784.742 391.938C786.992 397.312 788.117 403.396 788.117 410.188C788.117 416.896 786.992 422.958 784.742 428.375C782.534 433.75 779.263 438.021 774.93 441.188C770.596 444.312 765.263 445.875 758.93 445.875ZM760.305 435.688C764.846 435.688 768.576 434.604 771.492 432.438C774.409 430.229 776.555 427.208 777.93 423.375C779.346 419.5 780.055 415.104 780.055 410.188C780.055 405.188 779.346 400.792 777.93 397C776.555 393.167 774.43 390.188 771.555 388.062C768.68 385.896 765.034 384.813 760.617 384.813C756.034 384.813 752.242 385.938 749.242 388.188C746.284 390.438 744.076 393.479 742.617 397.312C741.201 401.146 740.492 405.438 740.492 410.188C740.492 414.979 741.221 419.312 742.68 423.188C744.138 427.021 746.326 430.062 749.242 432.312C752.201 434.562 755.888 435.688 760.305 435.688Z" fill="#0B0E14"/>
</svg>
