<svg width="75" height="75" viewBox="0 0 75 75" fill="none" xmlns="http://www.w3.org/2000/svg">
<path d="M37.08 1.77246C38.0624 3.49947 40.3118 8.72595 41.3137 11.1233C42.9511 11.1233 44.3587 10.1613 44.8579 9.68035C44.8579 8.52598 47.6732 6.22254 49.0808 5.21512C50.7182 1.64294 51.8602 1.4316 52.2264 1.77246C53.8639 4.4266 52.9087 8.15028 52.2264 9.68035C51.468 13.0162 52.5424 14.4258 53.1744 14.7137C55.2428 15.6317 62.7694 12.7026 66.2741 11.1233C66.9291 13.1957 64.4571 17.1603 63.1392 18.8835C60.8231 21.6104 59.1748 24.2122 61.7711 25.5075C63.8481 26.5437 71.4558 25.9393 75 25.5075C75 26.8028 73.8818 29.6796 69.409 30.8249C63.8179 32.2565 63.9579 34.2789 63.1392 35.5742C62.4842 36.6104 70.7735 40.6113 75 42.4822C74.6725 44.3274 71.1362 44.978 69.409 45.0727C64.8241 44.2637 62.4067 46.1748 61.7711 47.2315C60.543 51.4013 69.8183 57.0141 69.409 58.1616C68.9996 59.3092 62.0404 59.7409 58.0868 57.0141C54.1332 54.2872 53.7238 59.7409 55.6306 64.2062C57.156 67.7784 56.7187 69.6258 56.3093 70.103C55.1028 70.4484 50.9876 67.467 49.0808 65.9332C48.5292 63.8608 46.0357 62.6685 44.8579 62.3315C42.462 62.3315 42.0426 68.0882 42.1324 70.9665C41.5894 74.0751 39.9958 74.9508 39.2668 75C37.6294 74.2001 35.5826 68.6222 34.7638 65.9332C32.9109 60.1795 29.8981 62.8617 28.6234 64.922C28.5113 68.1397 24.6698 71.1559 22.763 72.2618C20.5826 71.571 20.849 64.3993 21.2548 60.8999C22.6682 56.9914 19.8472 56.6808 18.26 57.0141C15.8641 56.7868 13.5343 58.7373 12.6689 59.7409C11.0315 62.7314 9.07084 62.714 8.2952 62.3315C6.65774 60.6045 11.2541 52.3103 13.757 48.379C15.9374 45.3886 8.02947 45.6029 3.80297 46.0839C1.19165 47.5837 0.890733 46.7088 1.06669 46.0839C-0.139856 45.5113 3.75269 41.9065 5.84979 40.1757C9.56423 38.2124 10.8519 36.29 11.0315 35.5742C11.359 32.8109 5.5302 31.2566 2.57487 30.8249C1.26491 31.0521 0.391602 29.9652 0.118694 29.3933C-1.19127 27.6663 8.66507 26.0832 13.757 25.5075C15.834 23.326 11.4408 19.1297 8.98466 17.3042C7.13175 16.6134 6.93425 15.2894 7.06712 14.7137C7.7458 11.5437 14.5757 15.2931 16.8919 16.1566C18.7448 16.8474 20.5725 16.4445 21.2548 16.1566C21.6857 14.0842 20.2565 9.63491 19.4881 7.6693C18.7124 6.23012 17.3809 3.35177 18.26 3.35177C19.3588 3.35177 21.5349 4.49932 25.4885 8.5328C28.6514 11.7596 30.4404 12.4678 30.9395 12.4186C32.577 11.1551 33.2592 5.8476 33.3957 3.35177C32.9562 1.97016 34.2894 0.204512 35.2053 0C36.7307 0.690804 36.9435 1.19679 37.08 1.77246Z" fill="#FFD60A"/>
</svg>
